YatraOne_0.ufo
<glyph name="M" format="1">
  <advance width="871"/>
  <unicode hex="004D"/>
  <outline>
    <contour>
      <point x="208" y="626" type="line"/>
      <point x="70" y="666" type="line"/>
      <point x="70" y="0" type="line"/>
      <point x="210" y="-29" type="line"/>
      <point x="208" y="394" type="line"/>
      <point x="366" y="1" type="line"/>
      <point x="367" y="2" type="line"/>
      <point x="366" y="0" type="line"/>
      <point x="496" y="-29" type="line"/>
      <point x="661" y="337" type="line"/>
      <point x="661" y="0" type="line"/>
      <point x="801" y="-29" type="line"/>
      <point x="799" y="626" type="line"/>
      <point x="661" y="666" type="line"/>
      <point x="418" y="117" type="line"/>
    </contour>
  </outline>
</glyph>
<glyph name="W" format="1">
  <advance width="1108"/>
  <unicode hex="0057"/>
  <outline>
    <contour>
      <point x="267" y="12" type="line"/>
      <point x="415" y="-29" type="line"/>
      <point x="579" y="465" type="line"/>
      <point x="766" y="14" type="line"/>
      <point x="765" y="12" type="line"/>
      <point x="913" y="-29" type="line"/>
      <point x="1135" y="637" type="line"/>
      <point x="985" y="666" type="line"/>
      <point x="821" y="177" type="line"/>
      <point x="637" y="637" type="line"/>
      <point x="487" y="666" type="line"/>
      <point x="323" y="177" type="line"/>
      <point x="139" y="637" type="line"/>
      <point x="0" y="666" type="line"/>
      <point x="268" y="14" type="line"/>
    </contour>
  </outline>
</glyph>
<glyph name="m" format="1">
  <advance width="885"/>
  <unicode hex="006D"/>
  <outline>
    <contour>
      <point x="188" y="450" type="line"/>
      <point x="63" y="478" type="line"/>
      <point x="63" y="-1" type="line"/>
      <point x="188" y="-29" type="line"/>
      <point x="188" y="259" type="line"/>
      <point x="256" y="344"/>
      <point x="356" y="428"/>
      <point x="392" y="363" type="curve" smooth="yes"/>
      <point x="403" y="343"/>
      <point x="397" y="-1"/>
      <point x="397" y="-1" type="curve"/>
      <point x="397" y="-1"/>
      <point x="522" y="-29"/>
      <point x="521" y="-29" type="curve" smooth="yes"/>
      <point x="521" y="-29"/>
      <point x="522" y="192"/>
      <point x="519" y="275" type="curve"/>
      <point x="586" y="353"/>
      <point x="676" y="424"/>
      <point x="710" y="363" type="curve" smooth="yes"/>
      <point x="721" y="343"/>
      <point x="715" y="-1"/>
      <point x="715" y="-1" type="curve"/>
      <point x="715" y="-1"/>
      <point x="840" y="-29"/>
      <point x="839" y="-29" type="curve" smooth="yes"/>
      <point x="839" y="-29"/>
      <point x="840" y="270"/>
      <point x="835" y="303" type="curve" smooth="yes"/>
      <point x="829" y="339"/>
      <point x="681" y="485"/>
      <point x="637" y="488" type="curve" smooth="yes"/>
      <point x="569" y="492"/>
      <point x="501" y="423"/>
      <point x="463" y="376" type="curve"/>
      <point x="415" y="428"/>
      <point x="346" y="486"/>
      <point x="319" y="488" type="curve" smooth="yes"/>
      <point x="272" y="491"/>
      <point x="225" y="459"/>
      <point x="188" y="423" type="curve"/>
    </contour>
  </outline>
</glyph>
<glyph name="o" format="1">
  <advance width="590"/>
  <unicode hex="006F"/>
  <outline>
    <contour>
      <point x="337" y="482" type="move" name="top"/>
    </contour>
    <contour>
      <point x="381" y="377" type="curve" smooth="yes"/>
      <point x="517" y="284"/>
      <point x="350" y="-8"/>
      <point x="214" y="76" type="curve" smooth="yes"/>
      <point x="71" y="164"/>
      <point x="239" y="474"/>
    </contour>
    <contour>
      <point x="481" y="369" type="curve" smooth="yes"/>
      <point x="435" y="410"/>
      <point x="394" y="436"/>
      <point x="326" y="472" type="curve" smooth="yes"/>
      <point x="146" y="567"/>
      <point x="-79" y="251"/>
      <point x="129" y="73" type="curve" smooth="yes"/>
      <point x="157" y="49"/>
      <point x="179" y="29"/>
      <point x="239" y="-3" type="curve" smooth="yes"/>
      <point x="475" y="-129"/>
      <point x="642" y="225"/>
    </contour>
  </outline>
</glyph>
<glyph name="bar" format="1">
  <advance width="275"/>
  <unicode hex="007C"/>
  <outline>
    <contour>
      <point x="200" y="711" type="line"/>
      <point x="76" y="767" type="line"/>
      <point x="76" y="-54" type="line"/>
      <point x="200" y="-110" type="line"/>
    </contour>
  </outline>
</glyph>
<glyph name="acute" format="1">
  <advance width="266"/>
  <unicode hex="00B4"/>
  <outline>
    <contour>
      <point x="167" y="550" type="line"/>
      <point x="221" y="578"/>
      <point x="291" y="629"/>
      <point x="346" y="676" type="curve" smooth="yes"/>
      <point x="364" y="691"/>
      <point x="297" y="772"/>
      <point x="282" y="770" type="curve"/>
      <point x="233" y="700"/>
      <point x="182" y="644"/>
      <point x="144" y="591" type="curve"/>
    </contour>
  </outline>
</glyph>
<glyph name="AE" format="1">
  <advance width="1029"/>
  <unicode hex="00C6"/>
  <outline>
    <contour>
      <point x="737" y="0" type="move" name="ogonek"/>
    </contour>
    <contour>
      <point x="737" y="0" type="move" name="top"/>
    </contour>
    <contour>
      <point x="594" y="625" type="line"/>
      <point x="466" y="666" type="line"/>
      <point x="23" y="0" type="line"/>
      <point x="153" y="-29" type="line"/>
      <point x="295" y="182" type="line"/>
      <point x="557" y="199" type="line"/>
      <point x="557" y="284" type="line"/>
      <point x="355" y="271" type="line"/>
    </contour>
    <component base="E" xOffset="397"/>
  </outline>
</glyph>
<glyph name="ntilde" format="1">
  <advance width="597"/>
  <unicode hex="00F1"/>
  <outline>
    <contour>
      <point x="225" y="507" type="move" name="top"/>
    </contour>
    <component base="n"/>
    <component base="tilde" xOffset="89" yOffset="-10"/>
  </outline>
</glyph>
<glyph name="oacute" format="1">
  <advance width="590"/>
  <unicode hex="00F3"/>
  <outline>
    <contour>
      <point x="287" y="507" type="move" name="top"/>
    </contour>
    <component base="o"/>
    <component base="acute" xOffset="137"/>
  </outline>
</glyph>
<glyph name="ocircumflex" format="1">
  <advance width="590"/>
  <unicode hex="00F4"/>
  <outline>
    <contour>
      <point x="287" y="507" type="move" name="top"/>
    </contour>
    <component base="o"/>
    <component base="circumflex" xOffset="153"/>
  </outline>
</glyph>
<glyph name="otilde" format="1">
  <advance width="590"/>
  <unicode hex="00F5"/>
  <outline>
    <contour>
      <point x="287" y="507" type="move" name="top"/>
    </contour>
    <component base="o"/>
    <component base="tilde" xOffset="99"/>
  </outline>
</glyph>
<glyph name="Ccaron" format="1">
  <advance width="718"/>
  <unicode hex="010C"/>
  <outline>
    <contour>
      <point x="208" y="8" type="move" name="cedilla"/>
    </contour>
    <contour>
      <point x="438" y="743" type="move" name="top"/>
    </contour>
    <component base="C" xOffset="20"/>
    <component base="caron" xOffset="264" yOffset="250"/>
  </outline>
</glyph>
<glyph name="ohungarumlaut" format="1">
  <advance width="590"/>
  <unicode hex="0151"/>
  <outline>
    <contour>
      <point x="287" y="507" type="move" name="top"/>
    </contour>
    <component base="o"/>
    <component base="hungarumlaut" xOffset="130"/>
  </outline>
</glyph>
<glyph name="racute" format="1">
  <advance width="465"/>
  <unicode hex="0155"/>
  <outline>
    <contour>
      <point x="207" y="507" type="move" name="top"/>
    </contour>
    <component base="r"/>
    <component base="acute" xOffset="46"/>
  </outline>
</glyph>
<glyph name="sacute" format="1">
  <advance width="555"/>
  <unicode hex="015B"/>
  <outline>
    <contour>
      <point x="170" y="7" type="move" name="cedilla"/>
    </contour>
    <contour>
      <point x="261" y="507" type="move" name="top"/>
    </contour>
    <component base="s"/>
    <component base="acute" xOffset="34"/>
  </outline>
</glyph>
<glyph name="zacute" format="1">
  <advance width="484"/>
  <unicode hex="017A"/>
  <outline>
    <contour>
      <point x="257" y="507" type="move" name="top"/>
    </contour>
    <component base="z" xOffset="-5"/>
    <component base="acute" xOffset="6"/>
  </outline>
</glyph>
<glyph name="Zdotaccent" format="1">
  <advance width="835"/>
  <unicode hex="017B"/>
  <outline>
    <contour>
      <point x="378" y="743" type="move" name="top"/>
    </contour>
    <component base="Z"/>
    <component base="dotaccent" xOffset="336" yOffset="143"/>
  </outline>
</glyph>
<glyph name="quoteright" format="1">
  <advance width="256"/>
  <unicode hex="2019"/>
  <outline>
    <contour>
      <point x="164" y="541" type="line"/>
      <point x="193" y="574"/>
      <point x="242" y="676"/>
      <point x="250" y="727" type="curve"/>
      <point x="252" y="755"/>
      <point x="207" y="794"/>
      <point x="175" y="809" type="curve"/>
      <point x="154" y="804"/>
      <point x="103" y="762"/>
      <point x="100" y="739" type="curve"/>
      <point x="110" y="719"/>
      <point x="129" y="698"/>
      <point x="145" y="684" type="curve"/>
      <point x="147" y="663"/>
      <point x="135" y="606"/>
      <point x="123" y="568" type="curve"/>
    </contour>
  </outline>
</glyph>
<glyph name="dvBH_R" format="1">
  <advance width="499"/>
  <outline>
    <contour>
      <point x="504" y="184" type="line"/>
      <point x="442" y="111"/>
      <point x="397" y="77"/>
      <point x="305" y="10" type="curve"/>
      <point x="389" y="-56" type="line"/>
      <point x="466" y="20"/>
      <point x="511" y="82"/>
      <point x="532" y="138" type="curve"/>
    </contour>
    <component base="dvBH"/>
  </outline>
</glyph>
<glyph name="dvB_J_YA" format="1">
  <advance width="1582"/>
  <outline>
    <contour>
      <point x="703" y="319" type="line"/>
      <point x="779" y="319" type="line"/>
      <point x="847" y="234"/>
      <point x="780" y="196"/>
      <point x="730" y="178" type="curve"/>
      <point x="593" y="126"/>
      <point x="487" y="284"/>
      <point x="426" y="366" type="curve"/>
      <point x="400" y="410"/>
      <point x="325" y="449"/>
      <point x="292" y="460" type="curve" smooth="yes"/>
      <point x="224" y="482"/>
      <point x="14" y="348"/>
      <point x="59" y="263" type="curve" smooth="yes"/>
      <point x="96" y="191"/>
      <point x="171" y="71"/>
      <point x="277" y="71" type="curve"/>
      <point x="375" y="72"/>
      <point x="468" y="227"/>
      <point x="476" y="240" type="curve"/>
      <point x="528" y="168"/>
      <point x="576" y="111"/>
      <point x="610" y="88" type="curve" smooth="yes"/>
      <point x="697" y="29"/>
      <point x="933" y="128"/>
      <point x="897" y="231" type="curve" smooth="yes"/>
      <point x="891" y="250"/>
      <point x="860" y="288"/>
      <point x="821" y="319" type="curve"/>
      <point x="1117" y="319" type="line"/>
      <point x="1063" y="402" type="line"/>
      <point x="610" y="401" type="line"/>
    </contour>
    <contour>
      <point x="-3" y="523" type="line"/>
      <point x="1143" y="523" type="line"/>
      <point x="1143" y="619" type="line"/>
      <point x="-3" y="619" type="line"/>
    </contour>
    <contour>
      <point x="348" y="221" type="curve"/>
      <point x="228" y="336" type="line"/>
      <point x="282" y="366"/>
      <point x="354" y="374"/>
      <point x="422" y="317" type="curve"/>
      <point x="431" y="304" type="line"/>
      <point x="404" y="266"/>
      <point x="376" y="240"/>
    </contour>
    <contour>
      <point x="156" y="201" type="curve" smooth="yes"/>
      <point x="132" y="226"/>
      <point x="153" y="277"/>
      <point x="197" y="315" type="curve"/>
      <point x="315" y="202" type="line"/>
      <point x="239" y="166"/>
      <point x="173" y="182"/>
    </contour>
    <component base="dvYA" xOffset="902"/>
  </outline>
</glyph>
<glyph name="dvDA_mvR" format="1">
  <advance width="534"/>
  <outline>
    <contour>
      <point x="-20" y="523" type="line"/>
      <point x="299" y="523" type="line"/>
      <point x="298" y="469" type="line"/>
      <point x="298" y="469"/>
      <point x="127" y="461"/>
      <point x="110" y="454" type="curve" smooth="yes"/>
      <point x="41" y="426"/>
      <point x="23" y="322"/>
      <point x="111" y="244" type="curve"/>
      <point x="57" y="213"/>
      <point x="29" y="172"/>
      <point x="58" y="136" type="curve" smooth="yes"/>
      <point x="110" y="70"/>
      <point x="151" y="25"/>
      <point x="214" y="-19" type="curve" smooth="yes"/>
      <point x="257" y="-49"/>
      <point x="433" y="7"/>
      <point x="516" y="56" type="curve"/>
      <point x="441" y="131" type="line"/>
      <point x="130" y="-56"/>
      <point x="7" y="229"/>
      <point x="406" y="206" type="curve"/>
      <point x="341" y="289" type="line"/>
      <point x="279" y="299"/>
      <point x="210" y="287"/>
      <point x="153" y="264" type="curve"/>
      <point x="114" y="301"/>
      <point x="139" y="385"/>
      <point x="205" y="385" type="curve" smooth="yes"/>
      <point x="246" y="385"/>
      <point x="409" y="388"/>
      <point x="409" y="388" type="curve"/>
      <point x="410" y="523" type="line"/>
      <point x="540" y="523" type="line"/>
      <point x="540" y="619" type="line"/>
      <point x="-20" y="619" type="line"/>
    </contour>
  </outline>
</glyph>
<glyph name="dvDD_DDHA" format="1">
  <advance width="618"/>
  <outline>
    <contour>
      <point x="337" y="-446" type="move" name="blwm.virama"/>
    </contour>
    <contour>
      <point x="399" y="619" type="move" name="abvm.bindu"/>
    </contour>
    <contour>
      <point x="362" y="-449" type="move" name="blwm.u"/>
    </contour>
    <contour>
      <point x="412" y="619" type="move" name="abvm.e"/>
    </contour>
    <contour>
      <point x="194" y="-27" type="line"/>
      <point x="117" y="-35"/>
      <point x="44" y="-172"/>
      <point x="92" y="-248" type="curve" smooth="yes"/>
      <point x="258" y="-508"/>
      <point x="424" y="-514"/>
      <point x="569" y="-290" type="curve" smooth="yes"/>
      <point x="580" y="-273"/>
      <point x="442" y="-139"/>
      <point x="417" y="-139" type="curve" smooth="yes"/>
      <point x="392" y="-139"/>
      <point x="276" y="-202"/>
      <point x="306" y="-272" type="curve" smooth="yes"/>
      <point x="317" y="-297"/>
      <point x="338" y="-329"/>
      <point x="358" y="-351" type="curve"/>
      <point x="111" y="-404"/>
      <point x="164" y="-95"/>
      <point x="301" y="-94" type="curve" smooth="yes"/>
      <point x="460" y="-93" type="line"/>
      <point x="460" y="37" type="line"/>
      <point x="508" y="59"/>
      <point x="547" y="102"/>
      <point x="570" y="167" type="curve" smooth="yes"/>
      <point x="581" y="198"/>
      <point x="504" y="299"/>
      <point x="456" y="339" type="curve" smooth="yes"/>
      <point x="442" y="351"/>
      <point x="294" y="298"/>
      <point x="248" y="286" type="curve" smooth="yes"/>
      <point x="162" y="263"/>
      <point x="194" y="393"/>
      <point x="240" y="393" type="curve" smooth="yes"/>
      <point x="461" y="393" type="line"/>
      <point x="461" y="523" type="line"/>
      <point x="649" y="523" type="line"/>
      <point x="649" y="619" type="line"/>
      <point x="-10" y="619" type="line"/>
      <point x="-10" y="523" type="line"/>
      <point x="349" y="523" type="line"/>
      <point x="349" y="470" type="line"/>
      <point x="188" y="459" type="line" smooth="yes"/>
      <point x="134" y="455"/>
      <point x="58" y="345"/>
      <point x="99" y="300" type="curve" smooth="yes"/>
      <point x="137" y="260"/>
      <point x="191" y="220"/>
      <point x="239" y="186" type="curve" smooth="yes"/>
      <point x="295" y="146"/>
      <point x="506" y="303"/>
      <point x="488" y="237" type="curve" smooth="yes"/>
      <point x="455" y="116"/>
      <point x="266" y="7"/>
      <point x="79" y="248" type="curve"/>
      <point x="59" y="229" type="line"/>
      <point x="144" y="101"/>
      <point x="252" y="32"/>
      <point x="349" y="21" type="curve"/>
      <point x="349" y="-16" type="line"/>
    </contour>
    <contour>
      <point x="389" y="-338" type="curve"/>
      <point x="365" y="-262"/>
      <point x="453" y="-197"/>
      <point x="476" y="-220" type="curve" smooth="yes"/>
      <point x="498" y="-242"/>
      <point x="439" y="-300"/>
    </contour>
  </outline>
</glyph>
<glyph name="dvD_B_RA" format="1">
  <advance width="605"/>
  <outline>
    <contour>
      <point x="315" y="-275" type="move" name="blwm.virama"/>
    </contour>
    <contour>
      <point x="411" y="619" type="move" name="abvm.bindu"/>
    </contour>
    <contour>
      <point x="315" y="-265" type="move" name="blwm.u"/>
    </contour>
    <contour>
      <point x="394" y="619" type="move" name="abvm.e"/>
    </contour>
    <contour>
      <point x="499" y="14" type="line"/>
      <point x="488" y="-14"/>
      <point x="476" y="-40"/>
      <point x="463" y="-65" type="curve"/>
      <point x="211" y="17" type="line"/>
      <point x="196" y="-17" type="line"/>
      <point x="447" y="-97" type="line"/>
      <point x="424" y="-140"/>
      <point x="400" y="-182"/>
      <point x="373" y="-232" type="curve"/>
      <point x="457" y="-244" type="line"/>
      <point x="495" y="-127"/>
      <point x="515" y="-70"/>
      <point x="540" y="-20" type="curve"/>
    </contour>
    <component base="dvD_VA"/>
  </outline>
</glyph>
<glyph name="dvHA_mUU" format="1">
  <advance width="548"/>
  <outline>
    <contour>
      <point x="377" y="619" type="move" name="abvm.bindu"/>
    </contour>
    <contour>
      <point x="366" y="619" type="move" name="abvm.e"/>
    </contour>
    <component base="dvHA"/>
    <component base="dvmUU" xOffset="415" yOffset="-129"/>
  </outline>
</glyph>
<glyph name="dvH_YA" format="1">
  <advance width="768"/>
  <outline>
    <contour>
      <point x="-13" y="523" type="line"/>
      <point x="361" y="523" type="line"/>
      <point x="361" y="466" type="line"/>
      <point x="138" y="455" type="line" smooth="yes"/>
      <point x="84" y="452"/>
      <point x="25" y="328"/>
      <point x="67" y="283" type="curve" smooth="yes"/>
      <point x="83" y="265"/>
      <point x="111" y="240"/>
      <point x="137" y="218" type="curve"/>
      <point x="86" y="181"/>
      <point x="46" y="137"/>
      <point x="47" y="102" type="curve" smooth="yes"/>
      <point x="49" y="25"/>
      <point x="231" y="-149"/>
      <point x="308" y="-208" type="curve" smooth="yes"/>
      <point x="326" y="-222"/>
      <point x="462" y="-188"/>
      <point x="530" y="-164" type="curve"/>
      <point x="460" y="-78" type="line"/>
      <point x="326" y="-159"/>
      <point x="244" y="-80"/>
      <point x="213" y="-42" type="curve" smooth="yes"/>
      <point x="51" y="154"/>
      <point x="395" y="287"/>
      <point x="393" y="200" type="curve" smooth="yes"/>
      <point x="392" y="170"/>
      <point x="226" y="112"/>
      <point x="233" y="100" type="curve" smooth="yes"/>
      <point x="264" y="49"/>
      <point x="301" y="13"/>
      <point x="342" y="-18" type="curve" smooth="yes"/>
      <point x="409" y="-69"/>
      <point x="516" y="-32"/>
      <point x="587" y="49" type="curve"/>
      <point x="587" y="-2" type="line"/>
      <point x="711" y="-58" type="line"/>
      <point x="711" y="523" type="line"/>
      <point x="780" y="523" type="line"/>
      <point x="780" y="619" type="line"/>
      <point x="-13" y="619" type="line"/>
    </contour>
    <contour>
      <point x="212" y="381" type="curve"/>
      <point x="472" y="381" type="line"/>
      <point x="472" y="523" type="line"/>
      <point x="587" y="523" type="line"/>
      <point x="587" y="185" type="line"/>
      <point x="520" y="78"/>
      <point x="379" y="-18"/>
      <point x="320" y="62" type="curve"/>
      <point x="427" y="109"/>
      <point x="481" y="151"/>
      <point x="479" y="174" type="curve" smooth="yes"/>
      <point x="476" y="211"/>
      <point x="372" y="308"/>
      <point x="330" y="308" type="curve"/>
      <point x="297" y="309"/>
      <point x="226" y="278"/>
      <point x="163" y="237" type="curve"/>
      <point x="113" y="283"/>
      <point x="136" y="381"/>
    </contour>
  </outline>
</glyph>
<glyph name="dvI" format="1">
  <advance width="591"/>
  <outline>
    <contour>
      <point x="398" y="617" type="move" name="abvm.bindu"/>
    </contour>
    <contour>
      <point x="-5" y="523" type="line"/>
      <point x="336" y="523" type="line"/>
      <point x="336" y="479" type="line"/>
      <point x="152" y="468" type="line"/>
      <point x="98" y="464"/>
      <point x="40" y="340"/>
      <point x="81" y="295" type="curve" smooth="yes"/>
      <point x="118" y="255"/>
      <point x="176" y="208"/>
      <point x="226" y="168" type="curve" smooth="yes"/>
      <point x="279" y="125"/>
      <point x="432" y="272"/>
      <point x="479" y="224" type="curve" smooth="yes"/>
      <point x="529" y="173"/>
      <point x="385" y="56"/>
      <point x="257" y="81" type="curve"/>
      <point x="209" y="119"/>
      <point x="171" y="148"/>
      <point x="155" y="156" type="curve"/>
      <point x="120" y="147"/>
      <point x="83" y="106"/>
      <point x="83" y="92" type="curve" smooth="yes"/>
      <point x="83" y="48"/>
      <point x="134" y="5"/>
      <point x="141" y="-1" type="curve"/>
      <point x="168" y="-29"/>
      <point x="251" y="-16"/>
      <point x="306" y="-12" type="curve"/>
      <point x="377" y="-71"/>
      <point x="436" y="-123"/>
      <point x="500" y="-182" type="curve"/>
      <point x="539" y="-140" type="line"/>
      <point x="500" y="-115"/>
      <point x="435" y="-64"/>
      <point x="369" y="-10" type="curve"/>
      <point x="541" y="1"/>
      <point x="603" y="166"/>
      <point x="569" y="200" type="curve" smooth="yes"/>
      <point x="536" y="233"/>
      <point x="483" y="282"/>
      <point x="431" y="320" type="curve" smooth="yes"/>
      <point x="416" y="330"/>
      <point x="281" y="280"/>
      <point x="235" y="268" type="curve" smooth="yes"/>
      <point x="148" y="245"/>
      <point x="181" y="384"/>
      <point x="227" y="384" type="curve" smooth="yes"/>
      <point x="450" y="384" type="line"/>
      <point x="447" y="523" type="line"/>
      <point x="597" y="523" type="line"/>
      <point x="597" y="619" type="line"/>
      <point x="-5" y="619" type="line"/>
    </contour>
  </outline>
</glyph>
<glyph name="dvJ_J_VA" format="1">
  <advance width="1686"/>
  <outline>
    <contour>
      <point x="342" y="305" type="line"/>
      <point x="414" y="305" type="line"/>
      <point x="468" y="225"/>
      <point x="391" y="182"/>
      <point x="353" y="171" type="curve" smooth="yes"/>
      <point x="238" y="138"/>
      <point x="117" y="301"/>
      <point x="55" y="376" type="curve"/>
      <point x="29" y="360" type="line"/>
      <point x="115" y="233"/>
      <point x="208" y="105"/>
      <point x="260" y="69" type="curve" smooth="yes"/>
      <point x="347" y="10"/>
      <point x="582" y="112"/>
      <point x="548" y="216" type="curve" smooth="yes"/>
      <point x="542" y="233"/>
      <point x="512" y="272"/>
      <point x="475" y="305" type="curve"/>
      <point x="648" y="305" type="line"/>
      <point x="569" y="401" type="line"/>
      <point x="233" y="401" type="line"/>
    </contour>
    <contour>
      <point x="-12" y="523" type="line"/>
      <point x="782" y="523" type="line"/>
      <point x="782" y="619" type="line"/>
      <point x="-12" y="619" type="line"/>
    </contour>
    <component base="dvVA" xOffset="1097"/>
    <component base="dvJ" xOffset="528"/>
  </outline>
</glyph>
<glyph name="dvJ_TA" format="1">
  <advance width="1210"/>
  <outline>
    <contour>
      <point x="338" y="305" type="line"/>
      <point x="410" y="305" type="line"/>
      <point x="464" y="225"/>
      <point x="387" y="182"/>
      <point x="349" y="171" type="curve" smooth="yes"/>
      <point x="234" y="138"/>
      <point x="113" y="301"/>
      <point x="51" y="376" type="curve"/>
      <point x="25" y="360" type="line"/>
      <point x="111" y="233"/>
      <point x="204" y="105"/>
      <point x="256" y="69" type="curve" smooth="yes"/>
      <point x="343" y="10"/>
      <point x="578" y="112"/>
      <point x="544" y="216" type="curve" smooth="yes"/>
      <point x="538" y="233"/>
      <point x="508" y="272"/>
      <point x="471" y="305" type="curve"/>
      <point x="782" y="305" type="line"/>
      <point x="776" y="401" type="line"/>
      <point x="229" y="401" type="line"/>
    </contour>
    <contour>
      <point x="-16" y="523" type="line"/>
      <point x="778" y="523" type="line"/>
      <point x="778" y="619" type="line"/>
      <point x="-16" y="619" type="line"/>
    </contour>
    <component base="dvTA" xOffset="599"/>
  </outline>
</glyph>
<glyph name="dvKH" format="1">
  <advance width="645"/>
  <outline>
    <contour>
      <point x="-15" y="619" type="line"/>
      <point x="-15" y="523" type="line"/>
      <point x="251" y="523" type="line"/>
      <point x="283" y="432"/>
      <point x="294" y="310"/>
      <point x="182" y="273" type="curve"/>
      <point x="171" y="305"/>
      <point x="171" y="336"/>
      <point x="158" y="349" type="curve" smooth="yes"/>
      <point x="139" y="368"/>
      <point x="97" y="397"/>
      <point x="83" y="380" type="curve" smooth="yes"/>
      <point x="65" y="359"/>
      <point x="49" y="324"/>
      <point x="37" y="291" type="curve"/>
      <point x="42" y="164"/>
      <point x="150" y="-57"/>
      <point x="408" y="-57" type="curve" smooth="yes"/>
      <point x="541" y="-57"/>
      <point x="670" y="68"/>
      <point x="714" y="187" type="curve"/>
      <point x="755" y="243"/>
      <point x="783" y="298"/>
      <point x="783" y="298" type="curve"/>
      <point x="742" y="339"/>
      <point x="614" y="435"/>
      <point x="580" y="459" type="curve"/>
      <point x="539" y="486"/>
      <point x="424" y="423"/>
      <point x="369" y="354" type="curve"/>
      <point x="371" y="410"/>
      <point x="353" y="469"/>
      <point x="318" y="523" type="curve"/>
      <point x="762" y="523" type="line"/>
      <point x="762" y="619" type="line"/>
    </contour>
    <contour>
      <point x="558" y="70" type="curve"/>
      <point x="518" y="37"/>
      <point x="466" y="17"/>
      <point x="397" y="17" type="curve" smooth="yes"/>
      <point x="271" y="17"/>
      <point x="211" y="97"/>
      <point x="197" y="143" type="curve"/>
      <point x="271" y="166"/>
      <point x="320" y="209"/>
      <point x="346" y="261" type="curve"/>
      <point x="383" y="190"/>
      <point x="456" y="74"/>
    </contour>
    <contour>
      <point x="443" y="200" type="curve" smooth="yes"/>
      <point x="390" y="256"/>
      <point x="557" y="438"/>
      <point x="710" y="309" type="curve"/>
      <point x="590" y="120"/>
      <point x="471" y="170"/>
    </contour>
  </outline>
</glyph>
<glyph name="dvK_PHA" format="1">
  <advance width="1551"/>
  <outline>
    <contour>
      <point x="1157" y="-24" type="move" name="blwm.virama"/>
    </contour>
    <contour>
      <point x="1163" y="619" type="move" name="abvm.bindu"/>
    </contour>
    <contour>
      <point x="1161" y="-26" type="move" name="blwm.u"/>
    </contour>
    <contour>
      <point x="1160" y="619" type="move" name="abvm.e"/>
    </contour>
    <component base="dvK" xOffset="3"/>
    <component base="dvPHA" xOffset="683"/>
  </outline>
</glyph>
<glyph name="dvKxA" format="1">
  <advance width="852"/>
  <outline>
    <contour>
      <point x="437" y="-26" type="move" name="blwm.virama"/>
    </contour>
    <contour>
      <point x="454" y="619" type="move" name="abvm.bindu"/>
    </contour>
    <contour>
      <point x="425" y="-24" type="move" name="blwm.u"/>
    </contour>
    <contour>
      <point x="439" y="619" type="move" name="abvm.e"/>
    </contour>
    <component base="dvKA" xOffset="-3"/>
    <component base="dvNukta" xOffset="585" yOffset="82"/>
  </outline>
</glyph>
<glyph name="dvKx_RA" format="1">
  <advance width="896"/>
  <outline>
    <contour>
      <point x="488" y="-26" type="move" name="blwm.virama"/>
    </contour>
    <contour>
      <point x="491" y="619" type="move" name="abvm.bindu"/>
    </contour>
    <contour>
      <point x="481" y="-24" type="move" name="blwm.u"/>
    </contour>
    <contour>
      <point x="485" y="619" type="move" name="abvm.e"/>
    </contour>
    <contour>
      <point x="-60" y="523" type="line"/>
      <point x="54" y="523" type="line"/>
      <point x="54" y="619" type="line"/>
      <point x="-60" y="619" type="line"/>
    </contour>
    <component base="dvK_RA" xOffset="45"/>
    <component base="dvNukta" xScale="0.731000006199" yScale="0.731999993324" xOffset="333" yOffset="204"/>
  </outline>
</glyph>
<glyph name="dvLLA" format="1">
  <advance width="842"/>
  <outline>
    <contour>
      <point x="408" y="0" type="move" name="blwm.virama"/>
    </contour>
    <contour>
      <point x="605" y="617" type="move" name="abvm.bindu"/>
    </contour>
    <contour>
      <point x="476" y="-10" type="move" name="blwm.u"/>
    </contour>
    <contour>
      <point x="620" y="617" type="move" name="abvm.e"/>
    </contour>
    <contour>
      <point x="-13" y="523" type="line"/>
      <point x="541" y="523" type="line"/>
      <point x="541" y="404" type="line"/>
      <point x="507" y="374"/>
      <point x="457" y="325"/>
      <point x="405" y="274" type="curve"/>
      <point x="350" y="317"/>
      <point x="261" y="401"/>
      <point x="212" y="419" type="curve" smooth="yes"/>
      <point x="158" y="439"/>
      <point x="15" y="300"/>
      <point x="25" y="234" type="curve" smooth="yes"/>
      <point x="31" y="193"/>
      <point x="235" y="-21"/>
      <point x="271" y="-9" type="curve"/>
      <point x="285" y="-3"/>
      <point x="365" y="74"/>
      <point x="445" y="154" type="curve"/>
      <point x="506" y="104"/>
      <point x="626" y="0"/>
      <point x="637" y="6" type="curve"/>
      <point x="692" y="-11"/>
      <point x="834" y="125"/>
      <point x="824" y="191" type="curve" smooth="yes"/>
      <point x="820" y="220"/>
      <point x="720" y="331"/>
      <point x="648" y="393" type="curve"/>
      <point x="648" y="523" type="line"/>
      <point x="846" y="523" type="line"/>
      <point x="846" y="619" type="line"/>
      <point x="-13" y="619" type="line"/>
    </contour>
    <contour>
      <point x="548" y="137" type="curve" smooth="yes"/>
      <point x="541" y="143"/>
      <point x="524" y="157"/>
      <point x="484" y="194" type="curve"/>
      <point x="529" y="243"/>
      <point x="585" y="323"/>
      <point x="634" y="309" type="curve"/>
      <point x="799" y="257"/>
      <point x="675" y="30"/>
    </contour>
    <contour>
      <point x="363" y="235" type="curve"/>
      <point x="328" y="200"/>
      <point x="249" y="103"/>
      <point x="215" y="116" type="curve" smooth="yes"/>
      <point x="53" y="176"/>
      <point x="174" y="395"/>
      <point x="301" y="288" type="curve" smooth="yes"/>
      <point x="308" y="282"/>
      <point x="328" y="267"/>
    </contour>
  </outline>
</glyph>
<glyph name="dvL_HA" format="1">
  <advance width="962"/>
  <outline>
    <contour>
      <point x="737" y="-141" type="move" name="blwm.virama"/>
    </contour>
    <contour>
      <point x="838" y="619" type="move" name="abvm.bindu"/>
    </contour>
    <contour>
      <point x="752" y="-158" type="move" name="blwm.u"/>
    </contour>
    <contour>
      <point x="823" y="619" type="move" name="abvm.e"/>
    </contour>
    <component base="dvL" xOffset="3"/>
    <component base="dvHA" xOffset="429"/>
  </outline>
</glyph>
<glyph name="dvL_TH_YA" format="1">
  <advance width="1535"/>
  <outline>
    <contour>
      <point x="610" y="255" type="line"/>
      <point x="604" y="268"/>
      <point x="498" y="403"/>
      <point x="477" y="394" type="curve" smooth="yes"/>
      <point x="431" y="373"/>
      <point x="387" y="337"/>
      <point x="353" y="299" type="curve"/>
      <point x="317" y="337"/>
      <point x="252" y="401"/>
      <point x="213" y="414" type="curve" smooth="yes"/>
      <point x="158" y="432"/>
      <point x="12" y="319"/>
      <point x="20" y="253" type="curve" smooth="yes"/>
      <point x="28" y="190"/>
      <point x="163" y="30"/>
      <point x="262" y="-57" type="curve"/>
      <point x="289" y="-23" type="line"/>
      <point x="179" y="65"/>
      <point x="103" y="226"/>
      <point x="163" y="285" type="curve" smooth="yes"/>
      <point x="198" y="319"/>
      <point x="254" y="316"/>
      <point x="326" y="266" type="curve"/>
      <point x="308" y="242"/>
      <point x="296" y="219"/>
      <point x="290" y="200" type="curve"/>
      <point x="367" y="135" type="line"/>
      <point x="404" y="200"/>
      <point x="450" y="282"/>
      <point x="485" y="293" type="curve" smooth="yes"/>
      <point x="516" y="303"/>
      <point x="565" y="246"/>
      <point x="573" y="237" type="curve"/>
    </contour>
    <contour>
      <point x="-3" y="523" type="line"/>
      <point x="633" y="523" type="line"/>
      <point x="633" y="619" type="line"/>
      <point x="-3" y="619" type="line"/>
    </contour>
    <component base="dvTH_YA" xOffset="500"/>
  </outline>
</glyph>
<glyph name="dvM_DA_mUU" format="1">
  <advance width="998"/>
  <outline>
    <contour>
      <point x="780" y="618" type="move" name="abvm.bindu"/>
    </contour>
    <contour>
      <point x="762" y="619" type="move" name="abvm.e"/>
    </contour>
    <component base="dvM"/>
    <component base="dvDA_mUU" xOffset="373"/>
  </outline>
</glyph>
<glyph name="dvM_R" format="1">
  <advance width="476"/>
  <outline>
    <contour>
      <point x="504" y="184" type="line"/>
      <point x="442" y="111"/>
      <point x="346" y="44"/>
      <point x="243" y="2" type="curve"/>
      <point x="327" y="-64" type="line"/>
      <point x="420" y="-10"/>
      <point x="511" y="82"/>
      <point x="532" y="138" type="curve"/>
    </contour>
    <component base="dvM"/>
  </outline>
</glyph>
<glyph name="dvNN_DDHA" format="1">
  <advance width="1150"/>
  <outline>
    <contour>
      <point x="852" y="-14" type="move" name="blwm.virama"/>
    </contour>
    <contour>
      <point x="971" y="616" type="move" name="abvm.bindu"/>
    </contour>
    <contour>
      <point x="866" y="-16" type="move" name="blwm.u"/>
    </contour>
    <contour>
      <point x="955" y="619" type="move" name="abvm.e"/>
    </contour>
    <component base="dvNN"/>
    <component base="dvDDHA" xOffset="546"/>
  </outline>
</glyph>
<glyph name="dvNYA" format="1">
  <advance width="806"/>
  <outline>
    <contour>
      <point x="610" y="1" type="line"/>
      <point x="734" y="-55" type="line"/>
      <point x="734" y="523" type="line"/>
      <point x="810" y="523" type="line"/>
      <point x="810" y="619" type="line"/>
      <point x="-52" y="619" type="line"/>
      <point x="-52" y="523" type="line"/>
      <point x="610" y="523" type="line"/>
      <point x="610" y="363" type="line"/>
      <point x="585" y="314"/>
      <point x="524" y="305"/>
      <point x="430" y="324" type="curve"/>
      <point x="388" y="367"/>
      <point x="340" y="415"/>
      <point x="300" y="417" type="curve" smooth="yes"/>
      <point x="268" y="419"/>
      <point x="194" y="381"/>
      <point x="137" y="347" type="curve"/>
      <point x="217" y="273" type="line"/>
      <point x="302" y="318" type="line" smooth="yes"/>
      <point x="372" y="355"/>
      <point x="426" y="288"/>
      <point x="404" y="231" type="curve" smooth="yes"/>
      <point x="363" y="122"/>
      <point x="191" y="126"/>
      <point x="48" y="301" type="curve"/>
      <point x="15" y="275" type="line"/>
      <point x="109" y="161"/>
      <point x="209" y="56"/>
      <point x="348" y="74" type="curve" smooth="yes"/>
      <point x="468" y="89"/>
      <point x="539" y="169"/>
      <point x="479" y="271" type="curve"/>
      <point x="526" y="230"/>
      <point x="564" y="219"/>
      <point x="610" y="241" type="curve"/>
    </contour>
  </outline>
</glyph>
<glyph name="dvN_BH_VA" format="1">
  <advance width="1368"/>
  <outline>
    <contour>
      <point x="583" y="405" type="line"/>
      <point x="96" y="406"/>
      <point x="135" y="409"/>
      <point x="121" y="405" type="curve" smooth="yes"/>
      <point x="54" y="384"/>
      <point x="36" y="275"/>
      <point x="96" y="219" type="curve" smooth="yes"/>
      <point x="138" y="180"/>
      <point x="174" y="152"/>
      <point x="222" y="111" type="curve" smooth="yes"/>
      <point x="267" y="73"/>
      <point x="438" y="169"/>
      <point x="336" y="311" type="curve"/>
      <point x="583" y="308" type="line"/>
    </contour>
    <contour>
      <point x="-24" y="523" type="line"/>
      <point x="501" y="523" type="line"/>
      <point x="501" y="619" type="line"/>
      <point x="-24" y="619" type="line"/>
    </contour>
    <contour>
      <point x="261" y="312" type="curve"/>
      <point x="279" y="312" type="line"/>
      <point x="282" y="48"/>
      <point x="-1" y="315"/>
    </contour>
    <component base="dvBH" xOffset="361"/>
    <component base="dvVA" xOffset="779"/>
  </outline>
</glyph>
<glyph name="dvN_DHA" format="1">
  <advance width="1046"/>
  <outline>
    <contour>
      <point x="463" y="405" type="line"/>
      <point x="177" y="406"/>
      <point x="115" y="409"/>
      <point x="101" y="405" type="curve" smooth="yes"/>
      <point x="34" y="384"/>
      <point x="16" y="275"/>
      <point x="76" y="219" type="curve" smooth="yes"/>
      <point x="118" y="180"/>
      <point x="154" y="152"/>
      <point x="202" y="111" type="curve" smooth="yes"/>
      <point x="247" y="73"/>
      <point x="418" y="169"/>
      <point x="316" y="311" type="curve"/>
      <point x="563" y="308" type="line"/>
    </contour>
    <contour>
      <point x="-44" y="523" type="line"/>
      <point x="503" y="523" type="line"/>
      <point x="533" y="619" type="line"/>
      <point x="-44" y="619" type="line"/>
    </contour>
    <contour>
      <point x="241" y="312" type="curve"/>
      <point x="259" y="312" type="line"/>
      <point x="262" y="48"/>
      <point x="-21" y="315"/>
    </contour>
    <component base="dvDHA" xOffset="361"/>
  </outline>
</glyph>
<glyph name="dvN_N_YA" format="1">
  <advance width="1128"/>
  <outline>
    <contour>
      <point x="612" y="315" type="line"/>
      <point x="187" y="480"/>
      <point x="196" y="479"/>
      <point x="183" y="480" type="curve" smooth="yes"/>
      <point x="117" y="485"/>
      <point x="30" y="351"/>
      <point x="91" y="303" type="curve" smooth="yes"/>
      <point x="133" y="270"/>
      <point x="160" y="248"/>
      <point x="212" y="218" type="curve"/>
      <point x="246" y="197"/>
      <point x="394" y="257"/>
      <point x="337" y="355" type="curve"/>
      <point x="550" y="270" type="line"/>
      <point x="468" y="249"/>
      <point x="180" y="176"/>
      <point x="165" y="169" type="curve"/>
      <point x="112" y="131"/>
      <point x="81" y="49"/>
      <point x="145" y="6" type="curve" smooth="yes"/>
      <point x="186" y="-22"/>
      <point x="215" y="-37"/>
      <point x="270" y="-63" type="curve" smooth="yes"/>
      <point x="317" y="-84"/>
      <point x="433" y="45"/>
      <point x="343" y="120" type="curve"/>
      <point x="603" y="184" type="line"/>
      <point x="583" y="257" type="line"/>
      <point x="591" y="254" type="line"/>
    </contour>
    <contour>
      <point x="-11" y="523" type="line"/>
      <point x="706" y="523" type="line"/>
      <point x="706" y="619" type="line"/>
      <point x="-11" y="619" type="line"/>
    </contour>
    <contour>
      <point x="183" y="293" type="curve"/>
      <point x="143" y="316"/>
      <point x="152" y="402"/>
      <point x="260" y="381" type="curve"/>
      <point x="270" y="313"/>
      <point x="215" y="273"/>
    </contour>
    <contour>
      <point x="290" y="106" type="curve"/>
      <point x="301" y="32"/>
      <point x="237" y="-12"/>
      <point x="202" y="27" type="curve" smooth="yes"/>
      <point x="170" y="61"/>
      <point x="236" y="98"/>
    </contour>
    <component base="dvYA" xOffset="457"/>
  </outline>
</glyph>
<glyph name="dvN_R" format="1">
  <advance width="496"/>
  <outline>
    <contour>
      <point x="579" y="315" type="line"/>
      <point x="154" y="480"/>
      <point x="163" y="479"/>
      <point x="150" y="480" type="curve" smooth="yes"/>
      <point x="84" y="485"/>
      <point x="-3" y="351"/>
      <point x="58" y="303" type="curve" smooth="yes"/>
      <point x="100" y="270"/>
      <point x="127" y="248"/>
      <point x="179" y="218" type="curve"/>
      <point x="213" y="197"/>
      <point x="361" y="257"/>
      <point x="304" y="355" type="curve"/>
      <point x="497" y="278" type="line"/>
      <point x="438" y="230"/>
      <point x="244" y="127"/>
      <point x="133" y="81" type="curve"/>
      <point x="210" y="-8" type="line"/>
      <point x="319" y="52"/>
      <point x="512" y="171"/>
      <point x="544" y="214" type="curve"/>
      <point x="503" y="276" type="line"/>
      <point x="558" y="254" type="line"/>
    </contour>
    <contour>
      <point x="-30" y="523" type="line"/>
      <point x="687" y="523" type="line"/>
      <point x="687" y="619" type="line"/>
      <point x="-30" y="619" type="line"/>
    </contour>
    <contour>
      <point x="150" y="293" type="curve"/>
      <point x="110" y="316"/>
      <point x="119" y="402"/>
      <point x="227" y="381" type="curve"/>
      <point x="237" y="313"/>
      <point x="182" y="273"/>
    </contour>
  </outline>
</glyph>
<glyph name="dvOne" format="1">
  <advance width="433"/>
  <outline>
    <contour>
      <point x="368" y="-109" type="line"/>
      <point x="376" y="-103"/>
      <point x="453" y="-3"/>
      <point x="358" y="80" type="curve" smooth="yes"/>
      <point x="318" y="115"/>
      <point x="193" y="219"/>
      <point x="193" y="219" type="curve"/>
      <point x="266" y="263"/>
      <point x="457" y="375"/>
      <point x="396" y="471" type="curve" smooth="yes"/>
      <point x="371" y="510"/>
      <point x="318" y="561"/>
      <point x="248" y="610" type="curve" smooth="yes"/>
      <point x="159" y="672"/>
      <point x="-15" y="541"/>
      <point x="61" y="455" type="curve" smooth="yes"/>
      <point x="96" y="415"/>
      <point x="205" y="380"/>
      <point x="205" y="380" type="curve"/>
      <point x="175" y="355"/>
      <point x="54" y="299"/>
      <point x="51" y="289" type="curve"/>
      <point x="54" y="278"/>
      <point x="235" y="139"/>
      <point x="284" y="72" type="curve" smooth="yes"/>
      <point x="325" y="16"/>
      <point x="289" y="-29"/>
      <point x="273" y="-37" type="curve"/>
    </contour>
    <contour>
      <point x="234" y="408" type="curve"/>
      <point x="120" y="431"/>
      <point x="138" y="493"/>
      <point x="185" y="526" type="curve" smooth="yes"/>
      <point x="231" y="558"/>
      <point x="305" y="562"/>
      <point x="297" y="465" type="curve"/>
      <point x="289" y="439"/>
      <point x="248" y="406"/>
    </contour>
  </outline>
</glyph>
<glyph name="dvP_T_YA" format="1">
  <advance width="1354"/>
  <outline>
    <contour>
      <point x="-19" y="523" type="line"/>
      <point x="44" y="523" type="line"/>
      <point x="44" y="467"/>
      <point x="42" y="256"/>
      <point x="50" y="248" type="curve" smooth="yes"/>
      <point x="114" y="180"/>
      <point x="205" y="71"/>
      <point x="281" y="71" type="curve" smooth="yes"/>
      <point x="383" y="71"/>
      <point x="498" y="238"/>
      <point x="498" y="238" type="curve"/>
      <point x="497" y="238"/>
      <point x="418" y="321"/>
      <point x="418" y="321" type="curve"/>
      <point x="363" y="221"/>
      <point x="231" y="142"/>
      <point x="169" y="208" type="curve"/>
      <point x="167" y="523" type="line"/>
      <point x="600" y="523" type="line"/>
      <point x="600" y="619" type="line"/>
      <point x="-19" y="619" type="line"/>
    </contour>
    <component base="dvT" xOffset="358"/>
    <component base="dvYA" xOffset="685"/>
  </outline>
</glyph>
<glyph name="dvReph_Anusvara" format="1">
  <advance width="0"/>
  <outline>
    <contour>
      <point x="-103" y="615" type="move" name="_abvm.e"/>
    </contour>
    <component base="dvReph"/>
    <component base="dvAnusvara" xScale="0.771000027657" yScale="0.771000027657" xOffset="-173" yOffset="140"/>
  </outline>
</glyph>
<glyph name="dvSH_RA" format="1">
  <advance width="668"/>
  <outline>
    <contour>
      <point x="422" y="523" type="line"/>
      <point x="475" y="523" type="line"/>
      <point x="475" y="342" type="line"/>
      <point x="440" y="316"/>
      <point x="391" y="298"/>
      <point x="335" y="309" type="curve"/>
      <point x="395" y="360"/>
      <point x="433" y="413"/>
      <point x="410" y="453" type="curve" smooth="yes"/>
      <point x="376" y="512"/>
      <point x="275" y="627"/>
      <point x="250" y="627" type="curve" smooth="yes"/>
      <point x="155" y="627"/>
      <point x="53" y="473"/>
      <point x="83" y="425" type="curve" smooth="yes"/>
      <point x="106" y="387"/>
      <point x="146" y="357"/>
      <point x="195" y="332" type="curve"/>
      <point x="133" y="296"/>
      <point x="62" y="264"/>
      <point x="13" y="241" type="curve"/>
      <point x="101" y="169" type="line"/>
      <point x="156" y="191"/>
      <point x="236" y="234"/>
      <point x="302" y="283" type="curve"/>
      <point x="362" y="257"/>
      <point x="420" y="248"/>
      <point x="475" y="261" type="curve"/>
      <point x="475" y="259" type="line"/>
      <point x="393" y="213"/>
      <point x="237" y="113"/>
      <point x="143" y="60" type="curve"/>
      <point x="220" y="-29" type="line"/>
      <point x="302" y="31"/>
      <point x="407" y="105"/>
      <point x="475" y="155" type="curve"/>
      <point x="475" y="1" type="line"/>
      <point x="599" y="-55" type="line"/>
      <point x="599" y="523" type="line"/>
      <point x="680" y="523" type="line"/>
      <point x="680" y="619" type="line"/>
      <point x="383" y="619" type="line"/>
    </contour>
    <contour>
      <point x="227" y="371" type="line" smooth="yes"/>
      <point x="135" y="475"/>
      <point x="261" y="568"/>
      <point x="314" y="511" type="curve" smooth="yes"/>
      <point x="358" y="463"/>
      <point x="311" y="409"/>
      <point x="238" y="359" type="curve"/>
    </contour>
  </outline>
</glyph>
<glyph name="dvSS" format="1">
  <advance width="427"/>
  <outline>
    <contour>
      <point x="-12" y="523" type="line"/>
      <point x="51" y="523" type="line"/>
      <point x="51" y="467"/>
      <point x="49" y="256"/>
      <point x="57" y="248" type="curve" smooth="yes"/>
      <point x="121" y="180"/>
      <point x="212" y="71"/>
      <point x="288" y="71" type="curve" smooth="yes"/>
      <point x="390" y="71"/>
      <point x="528" y="238"/>
      <point x="528" y="238" type="curve"/>
      <point x="527" y="238"/>
      <point x="461" y="340"/>
      <point x="461" y="340" type="curve"/>
      <point x="452" y="326"/>
      <point x="441" y="312"/>
      <point x="429" y="298" type="curve"/>
      <point x="189" y="523" type="line"/>
      <point x="607" y="523" type="line"/>
      <point x="607" y="619" type="line"/>
      <point x="-12" y="619" type="line"/>
    </contour>
    <contour>
      <point x="176" y="208" type="curve"/>
      <point x="174" y="471" type="line"/>
      <point x="395" y="264" type="line"/>
      <point x="320" y="197"/>
      <point x="222" y="158"/>
    </contour>
  </outline>
</glyph>
<glyph name="dvS_JA" format="1">
  <advance width="1294"/>
  <outline>
    <contour>
      <point x="-8" y="523" type="line"/>
      <point x="232" y="523" type="line"/>
      <point x="265" y="432"/>
      <point x="276" y="306"/>
      <point x="164" y="269" type="curve"/>
      <point x="153" y="306"/>
      <point x="153" y="338"/>
      <point x="141" y="351" type="curve"/>
      <point x="121" y="370"/>
      <point x="79" y="398"/>
      <point x="65" y="382" type="curve" smooth="yes"/>
      <point x="47" y="361"/>
      <point x="31" y="324"/>
      <point x="19" y="290" type="curve"/>
      <point x="79" y="122"/>
      <point x="253" y="20"/>
      <point x="374" y="-56" type="curve"/>
      <point x="402" y="-19" type="line"/>
      <point x="336" y="26"/>
      <point x="223" y="116"/>
      <point x="197" y="166" type="curve"/>
      <point x="244" y="181"/>
      <point x="280" y="205"/>
      <point x="306" y="234" type="curve"/>
      <point x="338" y="212"/>
      <point x="403" y="171"/>
      <point x="435" y="171" type="curve" smooth="yes"/>
      <point x="513" y="171"/>
      <point x="647" y="256"/>
      <point x="647" y="256" type="curve"/>
      <point x="628" y="271"/>
      <point x="560" y="356"/>
      <point x="560" y="356" type="curve"/>
      <point x="488" y="255"/>
      <point x="385" y="249"/>
      <point x="331" y="270" type="curve"/>
      <point x="370" y="342"/>
      <point x="356" y="436"/>
      <point x="300" y="523" type="curve"/>
      <point x="640" y="523" type="line"/>
      <point x="640" y="619" type="line"/>
      <point x="-8" y="619" type="line"/>
    </contour>
    <component base="dvJA" xOffset="483"/>
  </outline>
</glyph>
<glyph name="dvS_KA" format="1">
  <advance width="1326"/>
  <outline>
    <contour>
      <point x="907" y="-26" type="move" name="blwm.virama"/>
    </contour>
    <contour>
      <point x="930" y="619" type="move" name="abvm.bindu"/>
    </contour>
    <contour>
      <point x="909" y="-29" type="move" name="blwm.u"/>
    </contour>
    <contour>
      <point x="916" y="619" type="move" name="abvm.e"/>
    </contour>
    <contour>
      <point x="-5" y="523" type="line"/>
      <point x="235" y="523" type="line"/>
      <point x="268" y="432"/>
      <point x="279" y="306"/>
      <point x="167" y="269" type="curve"/>
      <point x="156" y="306"/>
      <point x="156" y="338"/>
      <point x="144" y="351" type="curve"/>
      <point x="124" y="370"/>
      <point x="82" y="398"/>
      <point x="68" y="382" type="curve" smooth="yes"/>
      <point x="50" y="361"/>
      <point x="34" y="324"/>
      <point x="22" y="290" type="curve"/>
      <point x="82" y="122"/>
      <point x="256" y="20"/>
      <point x="377" y="-56" type="curve"/>
      <point x="405" y="-19" type="line"/>
      <point x="339" y="26"/>
      <point x="226" y="116"/>
      <point x="200" y="166" type="curve"/>
      <point x="247" y="181"/>
      <point x="283" y="205"/>
      <point x="309" y="234" type="curve"/>
      <point x="341" y="212"/>
      <point x="406" y="171"/>
      <point x="438" y="171" type="curve" smooth="yes"/>
      <point x="473" y="171"/>
      <point x="515" y="187"/>
      <point x="551" y="205" type="curve"/>
      <point x="510" y="297" type="line"/>
      <point x="452" y="245"/>
      <point x="377" y="250"/>
      <point x="333" y="269" type="curve"/>
      <point x="373" y="342"/>
      <point x="360" y="436"/>
      <point x="303" y="523" type="curve"/>
      <point x="643" y="523" type="line"/>
      <point x="643" y="619" type="line"/>
      <point x="-5" y="619" type="line"/>
    </contour>
    <component base="dvKA" xOffset="476"/>
  </outline>
</glyph>
<glyph name="dvT" format="1">
  <advance width="382"/>
  <outline>
    <contour>
      <point x="188" y="405" type="line"/>
      <point x="75" y="406"/>
      <point x="8" y="235"/>
      <point x="15" y="195" type="curve"/>
      <point x="24" y="133"/>
      <point x="142" y="31"/>
      <point x="241" y="-56" type="curve"/>
      <point x="276" y="-27" type="line"/>
      <point x="227" y="20"/>
      <point x="217" y="32"/>
      <point x="190" y="62" type="curve" smooth="yes"/>
      <point x="83" y="182"/>
      <point x="137" y="313"/>
      <point x="259" y="310" type="curve"/>
      <point x="491" y="306" type="line"/>
      <point x="491" y="403" type="line"/>
    </contour>
    <contour>
      <point x="-46" y="523" type="line"/>
      <point x="539" y="523" type="line"/>
      <point x="539" y="619" type="line"/>
      <point x="-46" y="619" type="line"/>
    </contour>
  </outline>
</glyph>
<glyph name="dvTTH_YA" format="1">
  <advance width="1250"/>
  <outline>
    <contour>
      <point x="1063" y="1" type="line"/>
      <point x="1187" y="-55" type="line"/>
      <point x="1187" y="523" type="line"/>
      <point x="1263" y="523" type="line"/>
      <point x="1263" y="619" type="line"/>
      <point x="573" y="619" type="line"/>
      <point x="573" y="523" type="line"/>
      <point x="1063" y="523" type="line"/>
      <point x="1063" y="340" type="line"/>
      <point x="997" y="210"/>
      <point x="846" y="104"/>
      <point x="721" y="235" type="curve"/>
      <point x="776" y="262"/>
      <point x="897" y="365"/>
      <point x="870" y="417" type="curve" smooth="yes"/>
      <point x="838" y="479"/>
      <point x="628" y="463"/>
      <point x="439" y="458" type="curve"/>
      <point x="464" y="381" type="line"/>
      <point x="571" y="381"/>
      <point x="733" y="388"/>
      <point x="741" y="385" type="curve" smooth="yes"/>
      <point x="779" y="371"/>
      <point x="655" y="309"/>
      <point x="604" y="284" type="curve" smooth="yes"/>
      <point x="580" y="273"/>
      <point x="780" y="71"/>
      <point x="902" y="71" type="curve" smooth="yes"/>
      <point x="968" y="71"/>
      <point x="1026" y="124"/>
      <point x="1063" y="167" type="curve"/>
    </contour>
    <component base="dvTTHA"/>
  </outline>
</glyph>
<glyph name="dvTT_YA" format="1">
  <advance width="1197"/>
  <outline>
    <contour>
      <point x="1003" y="1" type="line"/>
      <point x="1127" y="-55" type="line"/>
      <point x="1127" y="523" type="line"/>
      <point x="1203" y="523" type="line"/>
      <point x="1203" y="619" type="line"/>
      <point x="513" y="619" type="line"/>
      <point x="513" y="523" type="line"/>
      <point x="1003" y="523" type="line"/>
      <point x="1003" y="340" type="line"/>
      <point x="937" y="210"/>
      <point x="786" y="104"/>
      <point x="661" y="235" type="curve"/>
      <point x="716" y="262"/>
      <point x="837" y="365"/>
      <point x="810" y="417" type="curve" smooth="yes"/>
      <point x="783" y="467"/>
      <point x="628" y="463"/>
      <point x="439" y="458" type="curve"/>
      <point x="464" y="381" type="line"/>
      <point x="571" y="381"/>
      <point x="673" y="388"/>
      <point x="681" y="385" type="curve" smooth="yes"/>
      <point x="719" y="371"/>
      <point x="595" y="309"/>
      <point x="544" y="284" type="curve" smooth="yes"/>
      <point x="520" y="273"/>
      <point x="720" y="71"/>
      <point x="842" y="71" type="curve" smooth="yes"/>
      <point x="908" y="71"/>
      <point x="966" y="125"/>
      <point x="1003" y="167" type="curve"/>
    </contour>
    <component base="dvTTA" xOffset="5"/>
  </outline>
</glyph>
<glyph name="dvT_NA" format="1">
  <advance width="606"/>
  <outline>
    <contour>
      <point x="-6" y="523" type="line"/>
      <point x="409" y="523" type="line"/>
      <point x="409" y="373" type="line"/>
      <point x="293" y="424"/>
      <point x="93" y="450"/>
      <point x="19" y="441" type="curve"/>
      <point x="57" y="317" type="line"/>
      <point x="152" y="327"/>
      <point x="320" y="324"/>
      <point x="409" y="285" type="curve"/>
      <point x="409" y="278" type="line"/>
      <point x="294" y="244"/>
      <point x="107" y="188"/>
      <point x="95" y="182" type="curve"/>
      <point x="44" y="142"/>
      <point x="18" y="58"/>
      <point x="83" y="19" type="curve" smooth="yes"/>
      <point x="126" y="-7"/>
      <point x="156" y="-21"/>
      <point x="212" y="-43" type="curve" smooth="yes"/>
      <point x="260" y="-62"/>
      <point x="369" y="73"/>
      <point x="276" y="143" type="curve"/>
      <point x="409" y="180" type="line"/>
      <point x="409" y="1" type="line"/>
      <point x="533" y="-55" type="line"/>
      <point x="533" y="523" type="line"/>
      <point x="611" y="523" type="line"/>
      <point x="611" y="619" type="line"/>
      <point x="-6" y="619" type="line"/>
    </contour>
    <contour>
      <point x="224" y="126" type="curve"/>
      <point x="238" y="53"/>
      <point x="176" y="6"/>
      <point x="139" y="42" type="curve"/>
      <point x="106" y="76"/>
      <point x="170" y="116"/>
    </contour>
  </outline>
</glyph>
<glyph name="dvT_N_YA" format="1">
  <advance width="1027"/>
  <outline>
    <contour>
      <point x="484" y="352" type="line"/>
      <point x="382" y="416"/>
      <point x="137" y="452"/>
      <point x="53" y="441" type="curve"/>
      <point x="91" y="317" type="line"/>
      <point x="191" y="327"/>
      <point x="372" y="323"/>
      <point x="457" y="278" type="curve"/>
      <point x="405" y="263"/>
      <point x="145" y="190"/>
      <point x="129" y="182" type="curve"/>
      <point x="78" y="142"/>
      <point x="52" y="58"/>
      <point x="117" y="19" type="curve" smooth="yes"/>
      <point x="160" y="-7"/>
      <point x="190" y="-21"/>
      <point x="246" y="-43" type="curve" smooth="yes"/>
      <point x="294" y="-62"/>
      <point x="403" y="73"/>
      <point x="310" y="143" type="curve"/>
      <point x="497" y="190" type="line"/>
      <point x="468" y="281" type="line"/>
    </contour>
    <contour>
      <point x="-60" y="523" type="line"/>
      <point x="646" y="523" type="line"/>
      <point x="646" y="619" type="line"/>
      <point x="-60" y="619" type="line"/>
    </contour>
    <contour>
      <point x="258" y="126" type="curve"/>
      <point x="272" y="53"/>
      <point x="210" y="6"/>
      <point x="173" y="42" type="curve"/>
      <point x="140" y="76"/>
      <point x="204" y="116"/>
    </contour>
    <component base="dvYA" xOffset="359"/>
  </outline>
</glyph>
<glyph name="dvT_P_LA" format="1">
  <advance width="1435"/>
  <outline>
    <contour>
      <point x="344" y="523" type="line"/>
      <point x="407" y="523" type="line"/>
      <point x="407" y="467"/>
      <point x="405" y="256"/>
      <point x="413" y="248" type="curve" smooth="yes"/>
      <point x="477" y="180"/>
      <point x="568" y="71"/>
      <point x="644" y="71" type="curve" smooth="yes"/>
      <point x="746" y="71"/>
      <point x="860" y="236"/>
      <point x="860" y="236" type="curve"/>
      <point x="859" y="236"/>
      <point x="781" y="324"/>
      <point x="781" y="324" type="curve"/>
      <point x="747" y="248"/>
      <point x="594" y="142"/>
      <point x="532" y="208" type="curve"/>
      <point x="530" y="523" type="line"/>
      <point x="963" y="523" type="line"/>
      <point x="963" y="619" type="line"/>
      <point x="344" y="619" type="line"/>
    </contour>
    <component base="dvLA" xOffset="731"/>
    <component base="dvT" xOffset="39"/>
  </outline>
</glyph>
<glyph name="dvT_RA" format="1">
  <advance width="535"/>
  <outline>
    <contour>
      <point x="-7" y="523" type="line"/>
      <point x="338" y="523" type="line"/>
      <point x="338" y="374" type="line"/>
      <point x="235" y="424"/>
      <point x="91" y="450"/>
      <point x="18" y="441" type="curve"/>
      <point x="56" y="317" type="line"/>
      <point x="150" y="327"/>
      <point x="258" y="323"/>
      <point x="337" y="285" type="curve"/>
      <point x="282" y="238"/>
      <point x="180" y="189"/>
      <point x="68" y="142" type="curve"/>
      <point x="145" y="53" type="line"/>
      <point x="221" y="95"/>
      <point x="292" y="139"/>
      <point x="338" y="176" type="curve"/>
      <point x="338" y="1" type="line"/>
      <point x="462" y="-55" type="line"/>
      <point x="462" y="523" type="line"/>
      <point x="540" y="523" type="line"/>
      <point x="540" y="619" type="line"/>
      <point x="-7" y="619" type="line"/>
    </contour>
  </outline>
</glyph>
<glyph name="dvV_HA" format="1">
  <advance width="870"/>
  <outline>
    <contour>
      <point x="646" y="-170" type="move" name="blwm.virama"/>
    </contour>
    <contour>
      <point x="733" y="619" type="move" name="abvm.bindu"/>
    </contour>
    <contour>
      <point x="607" y="-144" type="move" name="blwm.u"/>
    </contour>
    <contour>
      <point x="746" y="619" type="move" name="abvm.e"/>
    </contour>
    <contour>
      <point x="485" y="313" type="line"/>
      <point x="439" y="350"/>
      <point x="321" y="436"/>
      <point x="287" y="460" type="curve" smooth="yes"/>
      <point x="228" y="500"/>
      <point x="9" y="348"/>
      <point x="54" y="263" type="curve" smooth="yes"/>
      <point x="91" y="191"/>
      <point x="159" y="94"/>
      <point x="265" y="96" type="curve" smooth="yes"/>
      <point x="325" y="97"/>
      <point x="429" y="204"/>
      <point x="465" y="257" type="curve"/>
      <point x="418" y="302" type="line"/>
      <point x="298" y="200"/>
      <point x="190" y="166"/>
      <point x="151" y="212" type="curve" smooth="yes"/>
      <point x="100" y="272"/>
      <point x="272" y="446"/>
      <point x="422" y="315" type="curve"/>
    </contour>
    <contour>
      <point x="-8" y="523" type="line"/>
      <point x="478" y="523" type="line"/>
      <point x="478" y="619" type="line"/>
      <point x="-8" y="619" type="line"/>
    </contour>
    <component base="dvHA" xOffset="333"/>
  </outline>
</glyph>
<glyph name="dvvL" format="1">
  <advance width="737"/>
  <outline>
    <contour>
      <point x="575" y="621" type="move" name="abvm.bindu"/>
    </contour>
    <contour>
      <point x="556" y="619" type="move" name="abvm.e"/>
    </contour>
    <contour>
      <point x="-10" y="523" type="line"/>
      <point x="485" y="523" type="line"/>
      <point x="485" y="400" type="line"/>
      <point x="484" y="400" type="line"/>
      <point x="422" y="397"/>
      <point x="371" y="353"/>
      <point x="333" y="304" type="curve"/>
      <point x="296" y="342"/>
      <point x="236" y="401"/>
      <point x="198" y="414" type="curve" smooth="yes"/>
      <point x="143" y="432"/>
      <point x="-3" y="319"/>
      <point x="5" y="253" type="curve" smooth="yes"/>
      <point x="13" y="190"/>
      <point x="148" y="30"/>
      <point x="247" y="-57" type="curve"/>
      <point x="274" y="-23" type="line"/>
      <point x="224" y="24"/>
      <point x="188" y="69"/>
      <point x="160" y="105" type="curve" smooth="yes"/>
      <point x="68" y="220"/>
      <point x="136" y="403"/>
      <point x="313" y="276" type="curve"/>
      <point x="289" y="239"/>
      <point x="274" y="203"/>
      <point x="270" y="185" type="curve"/>
      <point x="350" y="122" type="line"/>
      <point x="371" y="215"/>
      <point x="504" y="381"/>
      <point x="595" y="289" type="curve" smooth="yes"/>
      <point x="688" y="195"/>
      <point x="326" y="101"/>
      <point x="407" y="-15" type="curve" smooth="yes"/>
      <point x="439" y="-61"/>
      <point x="472" y="-106"/>
      <point x="517" y="-143" type="curve" smooth="yes"/>
      <point x="548" y="-169"/>
      <point x="612" y="-196"/>
      <point x="707" y="-110" type="curve"/>
      <point x="621" y="-43" type="line"/>
      <point x="581" y="-100"/>
      <point x="525" y="-92"/>
      <point x="504" y="-58" type="curve" smooth="yes"/>
      <point x="435" y="54"/>
      <point x="766" y="123"/>
      <point x="683" y="259" type="curve" smooth="yes"/>
      <point x="671" y="278"/>
      <point x="642" y="305"/>
      <point x="609" y="330" type="curve"/>
      <point x="609" y="523" type="line"/>
      <point x="747" y="523" type="line"/>
      <point x="747" y="619" type="line"/>
      <point x="-10" y="619" type="line"/>
    </contour>
  </outline>
</glyph>
